<svg xmlns="http://www.w3.org/2000/svg" xmlns:xlink="http://www.w3.org/1999/xlink" width="389" height="230" viewBox="0 0 389 230">
  <defs>
    <clipPath id="clip-Custom_Size_1">
      <rect width="389" height="230"/>
    </clipPath>
  </defs>
  <g id="Custom_Size_1" data-name="Custom Size – 1" clip-path="url(#clip-Custom_Size_1)">
    <rect width="389" height="230" fill="#fff"/>
    <g id="Group_2" data-name="Group 2" transform="translate(0 2)">
      <text id="PUSHPAK.AI" transform="translate(0 190.533)" fill="#0360ae" font-size="55.33" font-family="DexaPro-Bold, Dexa Pro" font-weight="700" letter-spacing="0.07em"><tspan x="0" y="0">PUSH</tspan><tspan y="0" letter-spacing="-0.04em">P</tspan><tspan y="0">AK.AI</tspan></text>
      <g id="Group_1" data-name="Group 1" transform="translate(-25.94 -5)">
        <path id="Path_1" data-name="Path 1" d="M86.654,262.322V248.6H80.34V245.69H95.874V248.6H89.56v13.727Z" transform="translate(-21.4 -31.756)" fill="#010101"/>
        <path id="Path_2" data-name="Path 2" d="M111.7,262.322l-4.21-4.576H101.27V255.2H108.2a3.1,3.1,0,0,0,2.379-.858,3.432,3.432,0,0,0,.8-2.482,3.157,3.157,0,0,0-.835-2.414,3.283,3.283,0,0,0-2.288-.789H99.143V262.38H96.26V245.69H108.2a7.036,7.036,0,0,1,2.539.423,5.251,5.251,0,0,1,1.9,1.213,5.353,5.353,0,0,1,1.144,1.91,7.263,7.263,0,0,1,.48,2.528,6.3,6.3,0,0,1-.9,3.432,5.056,5.056,0,0,1-2.528,2.025l5.01,5.056Z" transform="translate(-19.109 -31.757)" fill="#010101"/>
        <path id="Path_3" data-name="Path 3" d="M132.823,262.351l-2.494-4.187h-7.87l1.373-2.356h5.1l-3.706-6.223-7.55,12.766H114.36l9.563-15.923a2.345,2.345,0,0,1,.595-.686,1.327,1.327,0,0,1,.824-.252,1.27,1.27,0,0,1,.812.252,2.5,2.5,0,0,1,.583.686l9.586,15.923Z" transform="translate(-16.505 -31.785)" fill="#010101"/>
        <path id="Path_4" data-name="Path 4" d="M138.489,250.182v12.171H135.72V247.219a1.9,1.9,0,0,1,.4-1.27,1.361,1.361,0,0,1,1.144-.469,1.43,1.43,0,0,1,.618.137,2.288,2.288,0,0,1,.618.458l11.736,11.645V245.584H153V260.82a1.91,1.91,0,0,1-.4,1.281,1.3,1.3,0,0,1-1.041.458,1.865,1.865,0,0,1-1.327-.618Z" transform="translate(-13.431 -31.787)" fill="#010101"/>
        <path id="Path_5" data-name="Path 5" d="M153.932,262.322v-2.906H166.4a2.505,2.505,0,0,0,1.8-.595,2.07,2.07,0,0,0,.629-1.579,1.979,1.979,0,0,0-.629-1.613,2.711,2.711,0,0,0-1.8-.538h-7.641a5.914,5.914,0,0,1-2.116-.355,4.575,4.575,0,0,1-1.6-.984,4.381,4.381,0,0,1-1.007-1.5,4.919,4.919,0,0,1-.355-1.9,5.194,5.194,0,0,1,.332-1.865,3.935,3.935,0,0,1,.984-1.476,4.713,4.713,0,0,1,1.613-.972,6.235,6.235,0,0,1,2.2-.355h11.942V248.6H158.8a2.139,2.139,0,0,0-1.556.538,1.99,1.99,0,0,0-.549,1.5,1.933,1.933,0,0,0,.561,1.487,2.128,2.128,0,0,0,1.521.526H166.4a5.594,5.594,0,0,1,3.855,1.144,4.576,4.576,0,0,1,1.315,3.615,5.639,5.639,0,0,1-.32,1.945,4.164,4.164,0,0,1-2.574,2.562,6.554,6.554,0,0,1-2.288.366Z" transform="translate(-10.846 -31.757)" fill="#010101"/>
        <path id="Path_6" data-name="Path 6" d="M172.16,262.322V245.69h14.116V248.6H175.043v13.727Zm5.01-6.863v-2.551h8.419v2.539Z" transform="translate(-8.187 -31.756)" fill="#010101"/>
        <path id="Path_7" data-name="Path 7" d="M194.576,262.322a7.893,7.893,0,0,1-5.777-2.437,8.007,8.007,0,0,1-1.693-2.688,9.288,9.288,0,0,1-.606-3.363,8.945,8.945,0,0,1,.606-3.34,7.412,7.412,0,0,1,1.693-2.574,7.584,7.584,0,0,1,2.562-1.647,8.682,8.682,0,0,1,3.214-.583h4.049a8.808,8.808,0,0,1,3.306.595,7.367,7.367,0,0,1,4.244,4.244,8.808,8.808,0,0,1,.595,3.306,9.289,9.289,0,0,1-.606,3.363,8.007,8.007,0,0,1-1.693,2.688,7.87,7.87,0,0,1-2.574,1.784,8.077,8.077,0,0,1-3.272.652Zm4.049-2.906a5.274,5.274,0,0,0,2.1-.412,4.976,4.976,0,0,0,2.745-2.86,5.914,5.914,0,0,0,.389-2.173,5.811,5.811,0,0,0-.389-2.162,4.941,4.941,0,0,0-1.144-1.7,5.033,5.033,0,0,0-1.659-1.144,5.479,5.479,0,0,0-2.1-.4h-4.049a5.342,5.342,0,0,0-2.07.4,4.93,4.93,0,0,0-1.636,1.144,5.159,5.159,0,0,0-1.075,1.693,5.789,5.789,0,0,0-.389,2.173,5.914,5.914,0,0,0,.389,2.173,5.2,5.2,0,0,0,1.075,1.727,4.987,4.987,0,0,0,1.636,1.144,5.148,5.148,0,0,0,2.07.412Z" transform="translate(-6.124 -31.757)" fill="#010101"/>
        <path id="Path_8" data-name="Path 8" d="M222.383,262.322l-4.21-4.576H211.95V255.2h6.932a3.1,3.1,0,0,0,2.379-.858,3.432,3.432,0,0,0,.8-2.482,3.157,3.157,0,0,0-.835-2.414,3.283,3.283,0,0,0-2.345-.789h-9.06V262.38H206.94V245.69h11.942a7.036,7.036,0,0,1,2.539.423,5.25,5.25,0,0,1,1.9,1.213,5.354,5.354,0,0,1,1.144,1.91,7.264,7.264,0,0,1,.412,2.517,6.3,6.3,0,0,1-.9,3.432,5.056,5.056,0,0,1-2.528,2.025l5.01,5.056Z" transform="translate(-3.182 -31.757)" fill="#010101"/>
        <path id="Path_9" data-name="Path 9" d="M246.837,262.348l-3.18-11.7-4.713,10.821a2.288,2.288,0,0,1-.606.812,1.338,1.338,0,0,1-.881.286,1.556,1.556,0,0,1-1.487-1.144L231.28,250.6l-3.18,11.691h-2.86l4.3-15.591a1.384,1.384,0,0,1,1.441-1.144,1.533,1.533,0,0,1,.858.252,1.6,1.6,0,0,1,.606.732l5.1,11.714,5.125-11.759a1.43,1.43,0,0,1,1.4-.984,1.407,1.407,0,0,1,1.4,1.144l4.255,15.649Z" transform="translate(-0.549 -31.782)" fill="#010101"/>
        <path id="Path_10" data-name="Path 10" d="M249.12,262.322V245.69h2.905v16.632Z" transform="translate(2.887 -31.756)" fill="#010101"/>
        <path id="Path_11" data-name="Path 11" d="M257.689,250.182v12.171H254.92V247.219a1.842,1.842,0,0,1,.4-1.27,1.361,1.361,0,0,1,1.144-.469,1.476,1.476,0,0,1,.618.137,2.289,2.289,0,0,1,.618.458l11.736,11.645V245.584h2.734V260.82a1.91,1.91,0,0,1-.4,1.281,1.3,1.3,0,0,1-1.041.458,1.842,1.842,0,0,1-1.327-.618Z" transform="translate(3.721 -31.787)" fill="#010101"/>
        <path id="Path_12" data-name="Path 12" d="M280.756,262.322a7.893,7.893,0,0,1-5.777-2.437,8.007,8.007,0,0,1-1.693-2.688,9.288,9.288,0,0,1-.606-3.363,8.945,8.945,0,0,1,.606-3.34,7.413,7.413,0,0,1,1.693-2.574,7.584,7.584,0,0,1,2.562-1.647,8.682,8.682,0,0,1,3.214-.583h9.014V248.6h-9.014a5.308,5.308,0,0,0-2.07.4,4.816,4.816,0,0,0-1.636,1.144,4.975,4.975,0,0,0-1.075,1.693,5.788,5.788,0,0,0-.389,2.173,5.913,5.913,0,0,0,.389,2.173,5.022,5.022,0,0,0,1.075,1.727,4.874,4.874,0,0,0,1.636,1.144,5.114,5.114,0,0,0,2.07.412h7.161v-4.324h-7.55v-2.448H290.8v9.677Z" transform="translate(6.277 -31.756)" fill="#010101"/>
        <path id="Path_13" data-name="Path 13" d="M298.06,262.322V245.69h9.632a8.637,8.637,0,0,1,3.249.595,7.641,7.641,0,0,1,2.562,1.67,8.008,8.008,0,0,1,1.682,2.574,8.808,8.808,0,0,1,.606,3.306,9.289,9.289,0,0,1-.606,3.363,8.373,8.373,0,0,1-1.682,2.688,7.9,7.9,0,0,1-5.811,2.437Zm9.632-2.906a5.033,5.033,0,0,0,4.8-3.272,6.154,6.154,0,0,0,.389-2.173,6.051,6.051,0,0,0-.389-2.162A4.919,4.919,0,0,0,309.762,249a5.388,5.388,0,0,0-2.07-.4h-6.749v10.821Z" transform="translate(9.93 -31.756)" fill="#010101"/>
        <path id="Path_14" data-name="Path 14" d="M331.843,262.351l-2.494-4.187h-7.87l1.373-2.356h5.1l-3.706-6.223-7.55,12.766H313.38l9.563-15.923a2.184,2.184,0,0,1,.595-.686,1.327,1.327,0,0,1,.824-.252,1.293,1.293,0,0,1,.812.252,2.5,2.5,0,0,1,.583.686l9.586,15.923Z" transform="translate(12.134 -31.785)" fill="#010101"/>
        <path id="Path_15" data-name="Path 15" d="M337.674,262.322V248.6H331.36V245.69h15.534V248.6H340.58v13.727Z" transform="translate(14.722 -31.756)" fill="#010101"/>
        <path id="Path_16" data-name="Path 16" d="M362.023,262.351l-2.494-4.187h-7.87l1.373-2.356h5.1l-3.706-6.223-7.55,12.766H343.56l9.563-15.923a2.186,2.186,0,0,1,.595-.686,1.327,1.327,0,0,1,.824-.252,1.293,1.293,0,0,1,.812.252,2.494,2.494,0,0,1,.583.686l9.586,15.923Z" transform="translate(16.477 -31.785)" fill="#010101"/>
      </g>
      <path id="Path_17" data-name="Path 17" d="M200.34,112.69l.19-.11-.03-.07-.16.01Z" transform="translate(0 0.013)" fill="#0360ae"/>
      <path id="Path_18" data-name="Path 18" d="M200.38,112.58l.23-.15-.09-.14-.27.04v.08Z" transform="translate(0 0.013)" fill="#0360ae"/>
      <path id="Path_19" data-name="Path 19" d="M199.07,112.43l2.9-2.05-2.04-.08-.2.53-.49,1.02-.26.21-.08.23Z" transform="translate(0 0.013)" fill="#0360ae"/>
      <path id="Path_20" data-name="Path 20" d="M251.48,34.7c-32.21-2.17-60.15,21.78-62.29,53.39a56.09,56.09,0,0,0,.51,12.19c2.71-.71,6.37.27,10.35,2.58a46.63,46.63,0,0,1-1.2-14.12c1.78-26.28,25.1-46.19,52-44.38s47.31,24.68,45.54,51-25.1,46.19-52,44.38a49.939,49.939,0,0,1-10.69-1.91h0l-10,6.59a59,59,0,0,0,20.05,5C276,151.55,303.89,127.6,306,96S283.69,36.88,251.48,34.7Z" transform="translate(-21.4 -31.787)" fill="#e67a31"/>
      <path id="Path_21" data-name="Path 21" d="M251.67,31.94a61.56,61.56,0,0,0-44.41,14.68A59.3,59.3,0,0,0,187,100.7l.46,3,3-.78c1.89-.5,4.9.34,8.26,2.29l1.19.69a11.68,11.68,0,0,1,3.46-1.39l-.57-2.34a43.94,43.94,0,0,1-1.13-13.28c1.68-24.77,23.67-43.52,49-41.81a46.36,46.36,0,0,1,31.64,15.39A44.18,44.18,0,0,1,278,126a46.37,46.37,0,0,1-33.43,11,47.36,47.36,0,0,1-10.09-1.8l-6.79-2L230,137l-12,7.92,4.63,2.05a61.86,61.86,0,0,0,21,5.2c1.43.1,2.86.14,4.28.14A61.37,61.37,0,0,0,288,137.45a59.3,59.3,0,0,0,20.83-41.28C311,63,285.4,34.22,251.67,31.94Zm51.6,63.86a53.84,53.84,0,0,1-18.91,37.45,56.43,56.43,0,0,1-54.68,10.52l4.5-3a53.071,53.071,0,0,0,10,1.66,51.82,51.82,0,0,0,37.39-12.31,49.71,49.71,0,0,0,4.82-71.33A51.89,51.89,0,0,0,251,41.6c-28.41-1.91-53.05,19.15-54.93,47a49.451,49.451,0,0,0,.28,9.58,15.8,15.8,0,0,0-4.26-.84,53.71,53.71,0,0,1,18.75-46.47A56,56,0,0,1,251.3,37.46C282,39.54,305.3,65.7,303.27,95.8Z" transform="translate(-21.4 -31.787)" fill="#e67a31"/>
      <circle id="Ellipse_1" data-name="Ellipse 1" cx="13.69" cy="13.69" r="13.69" transform="translate(158.49 50.313)" fill="#e67a31"/>
      <path id="Path_22" data-name="Path 22" d="M254,85.5a56.09,56.09,0,0,1,.51,12.19c-2.14,31.61-30.08,55.56-62.29,53.39S135.5,121.41,137.63,89.8s30.08-55.56,62.29-53.39a59.16,59.16,0,0,1,20.8,5.29c-1.68,2.27-1.85,6-.7,10.48a49.51,49.51,0,0,0-20.75-6.11c-26.88-1.81-50.2,18.09-52,44.38s18.66,49.15,45.54,51,50.2-18.09,52-44.38a46.629,46.629,0,0,0-1.2-14.12C247.59,85.23,251.25,86.21,254,85.5Z" transform="translate(-21.4 -31.787)" fill="#0360ae"/>
      <path id="Path_23" data-name="Path 23" d="M256.7,85.09l-.46-3-3,.78c-1.88.5-4.9-.34-8.26-2.29l-4-2.3a2.521,2.521,0,0,1-.21.25h0l-.44.34h0L240,79l-.14.06,1.08,4.48a44.12,44.12,0,0,1-14.48,44.09,46.35,46.35,0,0,1-33.42,11c-25.37-1.72-44.64-23.26-43-48s23.67-43.53,49-41.81a46.42,46.42,0,0,1,19.6,5.77l.88.49a5.77,5.77,0,0,1,1-1A6.82,6.82,0,0,1,223,52.52l-.27-1c-.95-3.68-.86-6.65.24-8.14l2-2.74-3.09-1.42a62,62,0,0,0-21.77-5.54c-33.73-2.27-63,22.83-65.24,56A59.33,59.33,0,0,0,150,133.32a61.46,61.46,0,0,0,42,20.52c1.43.09,2.86.14,4.28.14a61.37,61.37,0,0,0,40.13-14.82,59.29,59.29,0,0,0,20.3-54.07Z" transform="translate(-21.4 -31.787)" fill="#0360ae"/>
      <path id="Path_24" data-name="Path 24" d="M195.87,39c-29,0-53.53,22.13-55.48,50.95a53.83,53.83,0,0,0,13.7,39.65A56.46,56.46,0,0,0,232.8,135a53.7,53.7,0,0,0,18.75-46.47,15.8,15.8,0,0,1-4.26-.84,50.339,50.339,0,0,1,.28,9.59A49.67,49.67,0,0,1,230,131.87a51.91,51.91,0,0,1-37.39,12.31c-28.4-1.92-50-26.11-48.11-53.92s26.53-48.85,54.93-46.95a51.85,51.85,0,0,1,17.06,4.08,14.35,14.35,0,0,1,.5-4.27,56.58,56.58,0,0,0-17.28-3.95C198.44,39.08,197.15,39,195.87,39Z" transform="translate(-21.4 -31.787)" fill="#0360ae"/>
      <circle id="Ellipse_2" data-name="Ellipse 2" cx="13.69" cy="13.69" r="13.69" transform="translate(213.91 41.723)" fill="#0360ae"/>
      <path id="Path_25" data-name="Path 25" d="M203.17,50.41s16.07-13.07,19.34-13.24,4.94,9.62,4.94,9.62l-4.17,6.94-4.92,3.39-11.1.71-4.09-7Z" transform="translate(-21.4 -31.787)" fill="#e67a31"/>
    </g>
  </g>
</svg>
